name ./resultDataOpenSim/trcMotMarkerGrf/sub09/grf-03-07.mot
datacolumns 19
datarows 25
range 0.48800000 0.58400000
endheader

                time	     ground_force_vx	     ground_force_vy	     ground_force_vz	     ground_force_px	     ground_force_py	     ground_force_pz	   l_ground_force_vx	   l_ground_force_vy	   l_ground_force_vz	   l_ground_force_px	   l_ground_force_py	   l_ground_force_pz	     ground_torque_x	     ground_torque_y	     ground_torque_z	   l_ground_torque_x	   l_ground_torque_y	   l_ground_torque_z	
          0.48800000	         35.11548323	        371.91208419	         -7.37115826	         -0.70757675	          0.00000000	          0.06719171	          0.00000000	          0.00000000	          0.00000000	          0.00000000	          0.00000000	          0.00000000	          0.00000000	          5.81267142	          0.00000000	          0.00000000	          0.00000000	          0.00000000	
          0.49200000	         39.89439395	        380.58226024	         -6.37220889	         -0.70721237	          0.00000000	          0.06749152	          0.00000000	          0.00000000	          0.00000000	          0.00000000	          0.00000000	          0.00000000	          0.00000000	          6.17151780	          0.00000000	          0.00000000	          0.00000000	          0.00000000	
          0.49600000	         43.99985303	        390.57678473	         -5.56735240	         -0.70654127	          0.00000000	          0.06783614	          0.00000000	          0.00000000	          0.00000000	          0.00000000	          0.00000000	          0.00000000	          0.00000000	          6.49617359	          0.00000000	          0.00000000	          0.00000000	          0.00000000	
          0.50000000	         47.32073811	        401.90355567	         -5.30857589	         -0.70557062	          0.00000000	          0.06823157	          0.00000000	          0.00000000	          0.00000000	          0.00000000	          0.00000000	          0.00000000	          0.00000000	          6.73841258	          0.00000000	          0.00000000	          0.00000000	          0.00000000	
          0.50400000	         49.90719161	        414.56153670	         -5.89093871	         -0.70433375	          0.00000000	          0.06866687	          0.00000000	          0.00000000	          0.00000000	          0.00000000	          0.00000000	          0.00000000	          0.00000000	          6.85526678	          0.00000000	          0.00000000	          0.00000000	          0.00000000	
          0.50800000	         51.93737929	        428.52461480	         -7.47996320	         -0.70290649	          0.00000000	          0.06911596	          0.00000000	          0.00000000	          0.00000000	          0.00000000	          0.00000000	          0.00000000	          0.00000000	          6.81926555	          0.00000000	          0.00000000	          0.00000000	          0.00000000	
          0.51200000	         53.65697259	        443.72606140	        -10.06305958	         -0.70136957	          0.00000000	          0.06954942	          0.00000000	          0.00000000	          0.00000000	          0.00000000	          0.00000000	          0.00000000	          0.00000000	          6.62616975	          0.00000000	          0.00000000	          0.00000000	          0.00000000	
          0.51600000	         55.31111571	        460.06187106	        -13.43665214	         -0.69978766	          0.00000000	          0.06993247	          0.00000000	          0.00000000	          0.00000000	          0.00000000	          0.00000000	          0.00000000	          0.00000000	          6.29813783	          0.00000000	          0.00000000	          0.00000000	          0.00000000	
          0.52000000	         57.08560717	        477.41048871	        -17.23605388	         -0.69821397	          0.00000000	          0.07022447	          0.00000000	          0.00000000	          0.00000000	          0.00000000	          0.00000000	          0.00000000	          0.00000000	          5.88136004	          0.00000000	          0.00000000	          0.00000000	          0.00000000	
          0.52400000	         59.07446026	        495.64354922	        -21.00601472	         -0.69669782	          0.00000000	          0.07039182	          0.00000000	          0.00000000	          0.00000000	          0.00000000	          0.00000000	          0.00000000	          0.00000000	          5.43846395	          0.00000000	          0.00000000	          0.00000000	          0.00000000	
          0.52800000	         61.28745943	        514.61056814	        -24.29411260	         -0.69526901	          0.00000000	          0.07041616	          0.00000000	          0.00000000	          0.00000000	          0.00000000	          0.00000000	          0.00000000	          0.00000000	          5.03719093	          0.00000000	          0.00000000	          0.00000000	          0.00000000	
          0.53200000	         63.69051448	        534.11324669	        -26.73887224	         -0.69393544	          0.00000000	          0.07029876	          0.00000000	          0.00000000	          0.00000000	          0.00000000	          0.00000000	          0.00000000	          0.00000000	          4.73769016	          0.00000000	          0.00000000	          0.00000000	          0.00000000	
          0.53600000	         66.25466073	        553.90208446	        -28.12868092	         -0.69268676	          0.00000000	          0.07005656	          0.00000000	          0.00000000	          0.00000000	          0.00000000	          0.00000000	          0.00000000	          0.00000000	          4.58106933	          0.00000000	          0.00000000	          0.00000000	          0.00000000	
          0.54000000	         68.99046302	        573.70759088	        -28.42581750	         -0.69151459	          0.00000000	          0.06971107	          0.00000000	          0.00000000	          0.00000000	          0.00000000	          0.00000000	          0.00000000	          0.00000000	          4.58157723	          0.00000000	          0.00000000	          0.00000000	          0.00000000	
          0.54400000	         71.95801692	        593.27886941	        -27.76251387	         -0.69042329	          0.00000000	          0.06928371	          0.00000000	          0.00000000	          0.00000000	          0.00000000	          0.00000000	          0.00000000	          0.00000000	          4.72410099	          0.00000000	          0.00000000	          0.00000000	          0.00000000	
          0.54800000	         75.25593163	        612.39745106	        -26.41042122	         -0.68941749	          0.00000000	          0.06879855	          0.00000000	          0.00000000	          0.00000000	          0.00000000	          0.00000000	          0.00000000	          0.00000000	          4.96764321	          0.00000000	          0.00000000	          0.00000000	          0.00000000	
          0.55200000	         78.99729095	        630.87288385	        -24.72183641	         -0.68849069	          0.00000000	          0.06828347	          0.00000000	          0.00000000	          0.00000000	          0.00000000	          0.00000000	          0.00000000	          0.00000000	          5.25417182	          0.00000000	          0.00000000	          0.00000000	          0.00000000	
          0.55600000	         83.27842100	        648.54489350	        -23.05511364	         -0.68762467	          0.00000000	          0.06776500	          0.00000000	          0.00000000	          0.00000000	          0.00000000	          0.00000000	          0.00000000	          0.00000000	          5.52093072	          0.00000000	          0.00000000	          0.00000000	          0.00000000	
          0.56000000	         88.14633381	        665.29157113	        -21.70621608	         -0.68679887	          0.00000000	          0.06726185	          0.00000000	          0.00000000	          0.00000000	          0.00000000	          0.00000000	          0.00000000	          0.00000000	          5.71337824	          0.00000000	          0.00000000	          0.00000000	          0.00000000	
          0.56400000	         93.57656181	        681.03028942	        -20.85947438	         -0.68599936	          0.00000000	          0.06678355	          0.00000000	          0.00000000	          0.00000000	          0.00000000	          0.00000000	          0.00000000	          0.00000000	          5.79577273	          0.00000000	          0.00000000	          0.00000000	          0.00000000	
          0.56800000	         99.47057151	        695.71452839	        -20.56182172	         -0.68521679	          0.00000000	          0.06633301	          0.00000000	          0.00000000	          0.00000000	          0.00000000	          0.00000000	          0.00000000	          0.00000000	          5.75711941	          0.00000000	          0.00000000	          0.00000000	          0.00000000	
          0.57200000	        105.67335576	        709.32417131	        -20.72368833	         -0.68444396	          0.00000000	          0.06590756	          0.00000000	          0.00000000	          0.00000000	          0.00000000	          0.00000000	          0.00000000	          0.00000000	          5.61143419	          0.00000000	          0.00000000	          0.00000000	          0.00000000	
          0.57600000	        112.00851364	        721.83860744	        -21.14611274	         -0.68367687	          0.00000000	          0.06549910	          0.00000000	          0.00000000	          0.00000000	          0.00000000	          0.00000000	          0.00000000	          0.00000000	          5.39264407	          0.00000000	          0.00000000	          0.00000000	          0.00000000	
          0.58000000	        118.32296116	        733.20785102	        -21.56940075	         -0.68291251	          0.00000000	          0.06510003	          0.00000000	          0.00000000	          0.00000000	          0.00000000	          0.00000000	          0.00000000	          0.00000000	          5.14559275	          0.00000000	          0.00000000	          0.00000000	          0.00000000	
          0.58400000	        124.52644589	        743.34234729	        -21.73584241	         -0.68215108	          0.00000000	          0.06470695	          0.00000000	          0.00000000	          0.00000000	          0.00000000	          0.00000000	          0.00000000	          0.00000000	          4.91535257	          0.00000000	          0.00000000	          0.00000000	          0.00000000	
